<?xml version="1.0" encoding="UTF-8"?>
<svg width="572px" height="252px" viewBox="0 0 572 252" version="1.1" xmlns="http://www.w3.org/2000/svg" xmlns:xlink="http://www.w3.org/1999/xlink">
    <!-- Generator: Sketch 49 (51002) - http://www.bohemiancoding.com/sketch -->
    <title>Rectangle with less pad g</title>
    <desc>Created with Sketch.</desc>
    <defs></defs>
    <g id="Rectangle-with-less-pad-g" stroke="none" stroke-width="1" fill="none" fill-rule="evenodd">
        <g id="Group" transform="translate(36.000000, 32.000000)">
            <path d="M12.1806641,29.0458984 L12.1806641,44.59375 L12.4628906,44.59375 C15.4111328,38.6035156 19.0244141,34.1806641 23.3037109,31.3291016 C27.5849609,28.4736328 33.0058594,27.1425781 39.5644531,27.3359375 L39.5644531,40.1708984 C34.7197266,40.1708984 30.5791016,40.8398437 27.1591797,42.171875 C23.734375,43.5019531 20.9755859,45.4482422 18.8857422,48.0146484 C16.7880859,50.5830078 15.2675781,53.7021484 14.3203125,57.3623047 C13.3681641,61.0224609 12.8916016,65.2285156 12.8916016,69.9853516 L12.8916016,102.789062 L0.76953125,102.789062 L0.76953125,29.0458984 L12.1806641,29.0458984" id="Fill-1" fill="#464644"></path>
            <path d="M98.6933594,50.7265625 C97.5966797,48.1611328 96.1279297,45.9472656 94.2695313,44.09375 C92.4160156,42.2412109 90.2265625,40.7666016 87.7070313,39.6708984 C85.1884766,38.5800781 82.4052734,38.0302734 79.3652344,38.0302734 C76.2226562,38.0302734 73.3945312,38.5800781 70.875,39.6708984 C68.3574219,40.7666016 66.1943359,42.2636719 64.3867188,44.1679687 C62.5791016,46.0712891 61.1523437,48.2773437 60.1064453,50.7998047 C59.0585937,53.3183594 58.4423828,56.0048828 58.2529297,58.8564453 L100.615234,58.8564453 C100.425781,56.0048828 99.7841797,53.2910156 98.6933594,50.7265625 L98.6933594,50.7265625 Z M101.614258,98.0839844 C96.0996094,102.270508 89.1542969,104.359375 80.7900391,104.359375 C74.8916016,104.359375 69.7841797,103.408203 65.4580078,101.503906 C61.1279297,99.6083984 57.4921875,96.9423828 54.546875,93.5185547 C51.5986328,90.0976562 49.3847656,86.0078125 47.9101562,81.2519531 C46.4365234,76.5 45.6035156,71.3154297 45.4150391,65.7050781 C45.4150391,60.09375 46.2734375,54.9599609 47.9833984,50.296875 C49.6943359,45.6376953 52.09375,41.5986328 55.1884766,38.1738281 C58.2763672,34.7490234 61.9375,32.0869141 66.1699219,30.1835937 C70.4003906,28.2880859 75.0341797,27.3359375 80.0761719,27.3359375 C86.6396484,27.3359375 92.0800781,28.6904297 96.4091797,31.3984375 C100.735352,34.1074219 104.205078,37.5585937 106.823242,41.7382812 C109.4375,45.9238281 111.244141,50.4902344 112.242188,55.4355469 C113.242188,60.3808594 113.643555,65.0859375 113.455078,69.5556641 L58.2529297,69.5556641 C58.1572266,72.7900391 58.5400391,75.8583984 59.3955078,78.7558594 C60.2490234,81.6582031 61.6269531,84.2246094 63.53125,86.4609375 C65.4316406,88.6972656 67.8574219,90.4765625 70.8066406,91.8085937 C73.7539062,93.1396484 77.2255859,93.8046875 81.21875,93.8046875 C86.3535156,93.8046875 90.5634766,92.6162109 93.8447266,90.2363281 C97.125,87.8613281 99.2851562,84.2470703 100.329102,79.3984375 L112.316406,79.3984375 C110.695312,87.6708984 107.130859,93.9013672 101.614258,98.0839844 L101.614258,98.0839844 Z" id="Fill-2" fill="#464644"></path>
            <path d="M148.399414,0.946289062 L148.399414,39.3154297 L148.828125,39.3154297 C151.393555,35.0361328 154.674805,31.9248047 158.671875,29.9746094 C162.665039,28.0244141 166.5625,27.0498047 170.366211,27.0498047 C175.787109,27.0498047 180.233398,27.7851562 183.702148,29.2587891 C187.173828,30.7333984 189.90918,32.7763672 191.905273,35.3916016 C193.90332,38.0068359 195.302734,41.1962891 196.112305,44.9492187 C196.921875,48.7099609 197.328125,52.8662109 197.328125,57.4326172 L197.328125,102.789062 L177.069336,102.789062 L177.069336,61.1386719 C177.069336,55.0556641 176.120117,50.5136719 174.21875,47.5185547 C172.31543,44.5234375 168.94043,43.0224609 164.088867,43.0224609 C158.575195,43.0224609 154.582031,44.6630859 152.109375,47.9443359 C149.632813,51.2255859 148.399414,56.6230469 148.399414,64.1337891 L148.399414,102.789062 L128.143555,102.789062 L128.143555,0.946289062 L148.399414,0.946289062" id="Fill-3" fill="#464644"></path>
            <path d="M214.727539,102.789063 L234.984375,102.789063 L234.984375,29.0458984 L214.727539,29.0458984 L214.727539,102.789063 Z M214.727539,17.6318359 L234.984375,17.6318359 L234.984375,0.946289062 L214.727539,0.946289062 L214.727539,17.6318359 Z" id="Fill-4" fill="#464644"></path>
            <polyline id="Fill-5" fill="#464644" points="270.640625 102.789063 245.393555 29.0458984 266.648438 29.0458984 282.195312 79.3984375 282.481445 79.3984375 298.029297 29.0458984 318.140625 29.0458984 293.180664 102.789063 270.640625 102.789063"></polyline>
            <path d="M372.561523,46.3037109 C370.135742,43.6416016 366.447266,42.3105469 361.506836,42.3105469 C358.270508,42.3105469 355.585938,42.8603516 353.446289,43.9511719 C351.304688,45.0458984 349.59668,46.4003906 348.310547,48.0146484 C347.025391,49.6357422 346.121094,51.3496094 345.599609,53.1523437 C345.076172,54.9599609 344.767578,56.5732422 344.672852,58.0009766 L377.62207,58.0009766 C376.669922,52.8662109 374.983398,48.9658203 372.561523,46.3037109 L372.561523,46.3037109 Z M349.666016,85.1064453 C352.707031,88.0546875 357.083008,89.5244141 362.786133,89.5244141 C366.876953,89.5244141 370.393555,88.5029297 373.342773,86.4609375 C376.290039,84.4169922 378.098633,82.25 378.763672,79.9677734 L396.592773,79.9677734 C393.741211,88.8125 389.366211,95.1347656 383.473633,98.9394531 C377.575195,102.742187 370.44043,104.646484 362.074219,104.646484 C356.273438,104.646484 351.042969,103.717773 346.384766,101.864258 C341.726563,100.011719 337.779297,97.3710937 334.543945,93.9482422 C331.313477,90.5224609 328.817383,86.4375 327.057617,81.6777344 C325.296875,76.9257812 324.417969,71.6953125 324.417969,65.9912109 C324.417969,60.4726562 325.319336,55.3417969 327.126953,50.5830078 C328.932617,45.8310547 331.50293,41.71875 334.830078,38.2480469 C338.157227,34.7724609 342.12793,32.0410156 346.740234,30.0449219 C351.353516,28.0478516 356.464844,27.0498047 362.074219,27.0498047 C368.350586,27.0498047 373.819336,28.2607422 378.480469,30.6865234 C383.135742,33.109375 386.966797,36.3671875 389.960938,40.4570312 C392.958008,44.546875 395.121094,49.2060547 396.451172,54.4365234 C397.782227,59.6689453 398.256836,65.1318359 397.87793,70.8398437 L344.672852,70.8398437 C344.956055,77.3984375 346.619141,82.1572266 349.666016,85.1064453 L349.666016,85.1064453 Z" id="Fill-6" fill="#464644"></path>
            <polyline id="Fill-7" fill="#F4CB56" points="370.192383 187.5 350.005859 153.810547 370.192383 120.117188 410.566406 120.117188 430.75 153.810547 410.566406 187.5 370.192383 187.5"></polyline>
            <path d="M479.024414,83.984375 L438.650391,83.984375 L418.463867,117.675781 L438.650391,151.367188 L479.024414,151.367188 L499.209961,117.675781 L479.024414,83.984375 L479.024414,83.984375 Z M474.292969,92.5908203 L489.865234,118.072266 L474.524414,143.554688 L443.150391,143.554688 L427.692383,118.164062 L443.150391,92.7734375 L472.65625,92.7734375 L474.292969,92.5908203 Z" id="Fill-8" fill="#F4CB56"></path>
        </g>
    </g>
</svg>